<svg xmlns="http://www.w3.org/2000/svg" version="1.0" width="271.000000pt" height="259.000000pt" viewBox="0 0 271.000000 259.000000" preserveAspectRatio="xMidYMid meet">

<g transform="translate(0.000000,259.000000) scale(0.100000,-0.100000)" fill="#000000" stroke="none">
<path d="M1670 2372 c-78 -33 -89 -41 -138 -103 -29 -38 -55 -75 -58 -83 -3 -9 -21 -18 -40 -22 -18 -3 -44 -17 -56 -29 -13 -13 -39 -40 -58 -59 -19 -20 -42 -36 -51 -36 -8 0 -19 -4 -25 -9 -18 -17 -171 -58 -256 -68 -39 -4 -52 -12 -73 -38 -13 -18 -39 -42 -57 -53 -18 -12 -51 -44 -73 -71 -22 -28 -45 -51 -51 -51 -12 0 -76 -30 -84 -39 -3 -3 -23 -15 -45 -26 -50 -25 -105 -73 -105 -91 0 -7 -13 -28 -29 -46 -15 -18 -36 -49 -46 -68 -10 -19 -24 -39 -31 -43 -8 -4 -14 -13 -14 -20 0 -7 -9 -29 -20 -49 -18 -35 -19 -38 -2 -48 15 -10 15 -11 0 -6 -11 3 -26 -7 -43 -30 -28 -36 -28 -51 -1 -41 9 4 13 12 10 20 -3 8 1 19 8 25 23 19 16 -41 -8 -64 -23 -22 -37 -90 -19 -99 6 -3 6 -7 -2 -11 -22 -10 -14 -26 10 -22 19 3 22 9 22 47 0 26 5 46 13 48 6 3 12 -1 12 -9 0 -10 3 -9 10 2 15 23 12 32 -10 25 -23 -7 -28 10 -6 18 8 3 16 16 18 29 2 12 14 28 27 34 22 11 22 12 5 23 -18 10 -18 12 -2 21 10 6 18 16 18 23 0 7 10 17 23 22 14 6 21 17 19 30 -2 14 7 26 26 37 22 13 28 23 26 47 -1 17 2 34 7 37 5 3 10 -29 10 -73 2 -119 16 -156 16 -42 0 53 3 101 7 108 14 21 26 0 26 -45 0 -24 4 -44 9 -44 9 0 12 25 12 93 0 17 5 27 14 27 10 0 15 -11 15 -35 0 -51 17 -43 22 10 2 30 -1 44 -8 41 -19 -7 -33 9 -28 32 5 16 10 19 23 13 9 -5 21 -6 28 -4 8 3 11 -6 10 -26 -3 -43 17 -39 21 4 3 30 0 35 -17 35 -12 0 -21 5 -21 11 0 5 -5 7 -10 4 -5 -3 -10 -4 -10 -1 0 3 15 12 32 19 47 19 65 -1 63 -71 -1 -29 1 -50 4 -46 3 3 6 18 6 32 0 17 5 27 15 27 8 0 14 -6 13 -12 -2 -7 4 -13 12 -13 12 0 15 13 15 58 0 32 5 63 12 70 6 6 8 15 4 19 -4 5 -16 -2 -25 -14 -19 -23 -34 -19 -39 10 -2 10 2 17 10 16 30 -4 49 2 47 14 -1 6 -1 20 0 31 1 17 2 17 27 1 28 -18 37 -15 39 16 1 14 -3 18 -14 14 -8 -3 -2 6 13 20 32 29 38 31 29 8 -4 -10 -2 -14 5 -10 6 4 12 -1 14 -10 2 -12 11 -3 27 30 26 54 44 63 30 15 -12 -42 -12 -88 0 -88 5 0 14 28 20 62 6 34 18 69 27 77 14 15 15 12 8 -24 -3 -22 -10 -44 -13 -50 -4 -5 -8 -37 -9 -70 -2 -67 -1 -66 43 78 15 48 31 87 36 87 12 0 11 -17 -2 -41 -6 -12 -13 -41 -15 -66 -2 -25 -9 -54 -15 -64 -5 -11 -6 -19 -1 -19 11 0 32 46 37 81 13 84 27 119 46 119 16 0 19 -4 13 -22 -3 -13 -14 -31 -22 -41 -17 -19 -27 -87 -13 -87 5 0 19 27 31 60 13 34 24 59 26 57 5 -4 -14 -152 -23 -181 -3 -12 -1 -16 6 -12 6 4 11 17 11 29 0 12 9 28 20 35 18 11 19 10 13 -18 -3 -18 -1 -30 5 -30 5 0 13 15 16 33 16 78 18 97 8 97 -6 0 -12 -10 -14 -22 -2 -12 -9 -24 -17 -26 -11 -4 -13 5 -8 46 7 58 30 92 59 84 16 -4 18 -1 12 22 -3 15 -2 26 4 26 12 0 24 -29 17 -40 -8 -13 -19 -160 -12 -160 6 0 32 108 30 128 0 6 3 12 8 12 5 0 9 -5 9 -11 0 -6 9 -9 20 -6 11 3 20 1 20 -4 0 -5 -7 -9 -15 -9 -8 0 -15 -6 -15 -12 -1 -7 -2 -47 -4 -88 -2 -41 -1 -63 1 -47 2 15 9 27 14 27 6 0 9 -8 7 -17 -1 -10 1 -24 6 -32 5 -8 10 -40 12 -72 3 -72 23 -116 24 -53 0 25 5 41 13 42 33 2 91 22 97 32 4 6 11 11 16 11 5 -1 10 14 12 33 2 20 13 43 28 56 l24 23 0 -32 c0 -55 -21 -123 -36 -117 -16 6 -19 -20 -3 -29 15 -10 49 25 49 50 0 12 9 34 20 47 10 14 17 28 14 30 -2 3 -7 21 -10 39 -17 117 -13 126 33 89 31 -24 45 -18 16 8 -19 16 -27 39 -24 69 0 6 17 17 36 24 19 7 35 17 35 21 0 11 -7 10 -31 -3 -11 -5 -28 -9 -37 -7 -12 3 -3 12 28 28 39 20 42 24 25 30 -11 4 -25 3 -32 -2 -7 -5 -13 -5 -17 0 -6 11 17 32 57 52 36 18 18 26 -25 11 -68 -24 -46 21 24 48 29 11 45 20 36 20 -10 1 -40 -8 -68 -19 -28 -11 -57 -20 -65 -20 -16 0 -16 21 0 32 6 4 -2 8 -17 8 -14 0 -29 -6 -31 -12 -3 -7 -6 -3 -6 10 -1 13 3 21 8 17 5 -3 12 -1 16 5 7 12 77 44 120 55 20 6 24 10 13 12 -23 6 -120 -24 -129 -39 -5 -7 -11 -9 -15 -5 -4 3 -2 13 4 20 7 8 8 18 4 22 -4 5 1 5 12 1 10 -3 24 -2 31 4 24 20 136 49 165 43 21 -4 30 -2 30 7 0 15 -100 8 -146 -11 -16 -6 -39 -13 -51 -15 -45 -6 -6 32 54 53 72 26 145 28 202 8 24 -8 57 -15 73 -15 36 0 133 -91 142 -133 3 -15 8 -38 11 -52 3 -14 23 -44 45 -67 37 -39 43 -58 18 -58 -6 0 -17 -8 -24 -17 -12 -17 -12 -17 -11 2 2 23 -34 33 -67 17 -12 -5 -34 -15 -50 -21 l-29 -12 54 -49 c30 -27 58 -50 63 -50 5 0 17 -10 28 -22 20 -23 20 -23 -2 -26 -21 -3 -20 -5 9 -23 17 -10 35 -29 39 -40 8 -20 9 -20 25 -4 17 16 16 20 -20 64 -20 25 -41 49 -46 52 -14 10 39 41 60 37 13 -2 19 -14 21 -41 2 -20 7 -37 11 -37 9 0 22 50 23 87 0 13 5 20 11 16 6 -4 7 -1 1 8 -4 8 -9 21 -9 29 -1 8 -2 25 -3 38 -1 12 -5 21 -9 20 -17 -4 -53 14 -53 26 0 8 -7 19 -15 26 -8 7 -15 21 -15 31 0 11 -4 19 -9 19 -15 0 -41 88 -28 93 35 11 157 -63 157 -97 0 -21 34 -46 63 -46 36 0 50 -42 32 -97 -4 -13 -12 -23 -18 -23 -17 0 -57 -54 -52 -69 7 -17 -21 -118 -40 -144 -13 -18 -13 -18 -23 -1 -10 18 -11 18 -30 1 -12 -11 -18 -26 -15 -41 5 -22 0 -25 -38 -33 -48 -10 -69 -2 -121 46 -34 31 -35 41 -4 41 14 0 28 5 31 10 11 17 -47 11 -60 -7 -19 -26 -36 -8 -23 27 13 38 20 42 52 30 30 -11 33 -4 10 28 -8 12 -26 22 -40 22 -13 0 -32 9 -41 19 -9 11 -21 17 -27 14 -6 -4 -7 -2 -3 3 9 9 13 10 43 13 26 2 4 21 -25 21 -44 0 -60 19 -62 77 l-3 52 -24 -20 c-25 -19 -25 -19 -47 1 -27 25 -35 25 -28 0 7 -26 38 -43 63 -35 16 5 20 2 20 -20 0 -14 5 -35 11 -47 14 -26 71 -77 87 -78 14 0 16 -26 3 -35 -5 -3 -8 -27 -6 -53 l3 -47 -57 63 c-55 61 -81 76 -81 48 0 -8 16 -23 35 -35 19 -11 40 -32 45 -47 6 -14 19 -28 30 -31 52 -14 -7 -64 -76 -65 -45 -1 -59 -14 -47 -44 5 -15 3 -15 -20 1 -23 15 -27 15 -27 2 0 -8 7 -20 15 -27 15 -12 21 -40 9 -40 -3 0 -19 9 -35 21 -16 11 -29 16 -29 11 0 -15 66 -62 75 -54 5 4 6 2 2 -3 -11 -20 9 -38 29 -26 12 6 14 11 5 11 -10 0 -11 3 -2 14 12 14 11 66 -1 66 -4 0 -8 9 -8 20 0 21 24 27 35 9 4 -5 23 -9 43 -8 21 1 70 2 110 1 56 -2 72 -5 72 -17 0 -23 -38 -39 -57 -24 -12 11 -17 10 -24 -4 -13 -22 -57 -22 -81 0 -17 15 -18 15 -18 -5 0 -22 -32 -46 -45 -34 -5 4 -5 1 0 -6 4 -8 17 -12 31 -9 13 2 21 0 18 -4 -9 -15 29 -10 85 11 29 12 62 18 73 14 15 -4 30 5 61 39 23 25 59 52 80 61 21 9 36 20 33 25 -7 11 40 51 60 51 8 0 16 12 20 28 20 93 36 148 44 156 6 6 10 19 10 31 0 12 14 40 31 63 27 37 29 44 16 62 -7 11 -16 18 -19 15 -7 -7 -121 104 -142 138 -9 15 -21 25 -26 22 -5 -3 -29 -1 -52 6 -24 6 -50 13 -58 14 -8 2 -15 4 -15 5 0 1 -9 3 -20 5 -11 2 -25 11 -31 19 -6 9 -16 16 -21 16 -6 0 -22 9 -37 21 -17 13 -47 22 -83 26 -32 2 -69 8 -83 13 -57 19 -77 17 -160 -18z m-47 -261 c13 -2 8 -38 -12 -84 -11 -25 -17 -55 -14 -66 9 -37 -18 -23 -73 36 -30 31 -54 51 -54 44 0 -14 40 -70 83 -116 18 -20 26 -37 22 -50 -2 -11 -5 -28 -5 -37 0 -11 -8 -18 -19 -18 -10 0 -23 -6 -28 -12 -16 -23 -33 -85 -27 -101 8 -22 -17 -33 -31 -14 -17 23 -35 21 -35 -3 0 -13 -5 -18 -15 -14 -8 4 -15 18 -15 33 0 15 -5 32 -12 39 -6 6 -13 22 -15 34 -2 13 -8 33 -15 46 -10 19 -8 26 11 46 24 26 22 41 -11 64 -32 23 -22 59 33 113 27 28 62 55 77 59 21 7 104 7 155 1z m483 -115 c-3 -14 -2 -28 4 -31 5 -3 10 1 10 9 0 16 25 22 34 8 9 -16 -30 -55 -50 -48 -18 6 -29 56 -11 56 4 0 7 7 7 15 0 8 3 15 6 15 3 0 3 -11 0 -24z m94 -31 c0 -8 -4 -15 -10 -15 -5 0 -10 7 -10 15 0 8 5 15 10 15 6 0 10 -7 10 -15z m-200 -214 c0 -5 11 -23 25 -39 23 -28 24 -30 5 -25 -11 3 -27 0 -35 -7 -13 -11 -18 -10 -30 6 -8 10 -12 24 -10 29 3 6 8 18 11 28 7 18 34 24 34 8z m110 -81 c0 -5 -4 -10 -10 -10 -5 0 -10 5 -10 10 0 6 5 10 10 10 6 0 10 -4 10 -10z m-1340 -19 c0 -5 3 -16 6 -24 3 -9 -2 -16 -13 -19 -16 -4 -18 0 -15 23 4 26 22 42 22 20z m-160 -21 c0 -5 -4 -10 -10 -10 -5 0 -10 5 -10 10 0 6 5 10 10 10 6 0 10 -4 10 -10z m-20 -30 c0 -5 -10 -10 -22 -10 -19 0 -20 2 -8 10 19 13 30 13 30 0z m-10 -40 c0 -5 -5 -10 -11 -10 -5 0 -7 5 -4 10 3 6 8 10 11 10 2 0 4 -4 4 -10z m-140 -140 c0 -5 -4 -10 -10 -10 -5 0 -10 5 -10 10 0 6 5 10 10 10 6 0 10 -4 10 -10z"/>
<path d="M1420 2002 c0 -20 29 -59 58 -78 l27 -17 -20 24 c-22 25 -28 34 -50 64 -8 11 -15 14 -15 7z"/>
<path d="M1430 1902 c0 -10 22 -32 32 -32 5 0 3 9 -4 20 -13 20 -28 27 -28 12z"/>
<path d="M1480 1860 c0 -5 5 -10 11 -10 5 0 7 5 4 10 -3 6 -8 10 -11 10 -2 0 -4 -4 -4 -10z"/>
<path d="M1758 2263 c12 -2 30 -2 40 0 9 3 -1 5 -23 4 -22 0 -30 -2 -17 -4z"/>
<path d="M1920 2229 c0 -49 41 -153 65 -163 20 -7 19 -6 -10 45 -14 24 -25 58 -25 75 0 16 -7 39 -15 50 -14 18 -14 18 -15 -7z"/>
<path d="M1680 2214 c-25 -15 -25 -15 10 -8 48 9 73 23 40 23 -14 0 -36 -6 -50 -15z"/>
<path d="M1625 2190 c-3 -5 -2 -10 4 -10 5 0 13 5 16 10 3 6 2 10 -4 10 -5 0 -13 -4 -16 -10z"/>
<path d="M1750 1983 c-23 -9 -40 -36 -38 -58 1 -11 -2 -26 -6 -34 -6 -10 -5 -12 2 -7 6 4 17 -2 24 -14 19 -30 56 -26 76 10 9 16 27 32 39 35 33 8 28 26 -12 53 -35 22 -56 26 -85 15z m30 -49 c0 -8 -4 -12 -10 -9 -5 3 -10 10 -10 16 0 5 5 9 10 9 6 0 10 -7 10 -16z m20 -33 c0 -5 -7 -17 -16 -25 -18 -18 -46 -8 -50 18 -2 12 6 16 32 16 19 0 34 -4 34 -9z"/>
<path d="M1226 1911 c-8 -12 4 -42 14 -36 15 9 19 45 5 45 -8 0 -16 -4 -19 -9z"/>
<path d="M1697 1849 c7 -7 15 -10 18 -7 3 3 -2 9 -12 12 -14 6 -15 5 -6 -5z"/>
<path d="M1755 1791 c-36 -8 -52 -43 -36 -83 15 -40 30 -35 21 6 -9 42 -4 50 40 69 36 16 26 19 -25 8z"/>
<path d="M913 1775 c-6 -11 -14 -47 -18 -79 -4 -33 -9 -65 -12 -73 -3 -7 0 -13 5 -13 6 0 14 21 17 48 4 26 11 59 17 74 5 14 8 35 6 45 -4 17 -5 17 -15 -2z"/>
<path d="M1105 1770 c3 -5 8 -10 11 -10 2 0 4 5 4 10 0 6 -5 10 -11 10 -5 0 -7 -4 -4 -10z"/>
<path d="M836 1728 c-9 -35 -7 -118 3 -118 19 0 32 131 15 137 -6 2 -14 -6 -18 -19z"/>
<path d="M1102 1730 c0 -14 2 -19 5 -12 2 6 2 18 0 25 -3 6 -5 1 -5 -13z"/>
<path d="M1630 1710 c0 -5 5 -10 11 -10 5 0 7 5 4 10 -3 6 -8 10 -11 10 -2 0 -4 -4 -4 -10z"/>
<path d="M949 1693 c-7 -34 -6 -73 2 -73 5 0 9 18 9 40 0 35 -7 55 -11 33z"/>
<path d="M992 1635 c-2 -41 1 -65 7 -65 7 0 11 22 11 53 0 29 5 58 12 65 9 9 8 12 -7 12 -18 0 -20 -8 -23 -65z"/>
<path d="M1050 1685 c-1 -6 -3 -39 -6 -75 -3 -36 -3 -62 1 -58 12 11 23 123 14 133 -6 6 -9 6 -9 0z"/>
<path d="M1149 1688 c-5 -17 -4 -50 3 -54 4 -3 8 9 8 25 0 17 -2 31 -5 31 -3 0 -5 -1 -6 -2z"/>
<path d="M1256 1658 c-3 -18 -2 -49 3 -68 7 -31 8 -26 9 33 1 72 -4 87 -12 35z"/>
<path d="M1670 1672 c6 -13 14 -21 18 -18 3 4 -2 14 -12 24 -18 16 -18 16 -6 -6z"/>
<path d="M1197 1651 c-4 -17 -3 -21 5 -13 5 5 8 16 6 23 -3 8 -7 3 -11 -10z"/>
<path d="M675 1640 c-3 -5 1 -10 9 -10 9 0 16 5 16 10 0 6 -4 10 -9 10 -6 0 -13 -4 -16 -10z"/>
<path d="M1580 1635 c0 -23 159 -125 194 -125 32 0 17 -43 -31 -87 -46 -43 -48 -44 -97 -37 -49 6 -70 20 -130 82 -13 13 -33 52 -46 88 -25 71 -46 97 -35 43 16 -81 27 -111 47 -127 23 -19 35 -31 60 -58 27 -30 43 -42 83 -58 46 -20 75 -20 75 -3 0 9 10 12 30 9 18 -3 30 0 30 7 0 6 5 10 12 8 6 -1 14 7 16 18 9 40 62 61 62 24 0 -11 5 -29 10 -39 19 -36 18 -146 -2 -223 -11 -39 -24 -76 -29 -81 -5 -6 -9 -19 -9 -30 0 -14 -3 -17 -8 -9 -12 19 -101 -16 -108 -42 -5 -22 -4 -22 -129 -17 l-50 2 30 18 c40 25 58 48 52 66 -3 8 2 16 11 18 9 3 23 22 30 44 8 21 20 53 27 69 7 17 17 42 20 58 6 22 4 26 -9 21 -9 -3 -16 -12 -16 -19 0 -21 -70 -165 -81 -165 -5 0 -9 -6 -9 -14 0 -15 -74 -65 -126 -85 -36 -14 -109 5 -109 29 0 8 -8 14 -17 12 -10 -1 -20 9 -27 29 -6 18 -14 30 -17 27 -8 -8 7 -58 17 -58 5 0 9 -6 9 -13 0 -7 27 -26 60 -42 l61 -29 -7 -45 c-9 -67 -35 -172 -49 -201 -11 -20 -11 -32 -1 -62 8 -20 9 -42 5 -51 -5 -8 -4 -29 1 -48 6 -19 10 -65 10 -104 0 -38 7 -91 14 -117 15 -49 84 -149 100 -144 17 4 17 23 1 40 -25 25 -14 38 18 21 15 -7 27 -12 27 -9 0 3 9 0 21 -6 16 -9 26 -8 43 3 21 14 32 47 15 47 -12 0 -73 163 -73 197 0 32 0 32 -19 13 -16 -18 -20 -18 -33 -6 -16 17 -19 66 -3 66 5 0 7 -5 3 -12 -4 -6 -3 -8 4 -4 8 5 10 53 1 64 -1 1 -2 6 -3 11 0 5 -5 13 -10 18 -5 4 -6 3 -2 -4 3 -6 0 -15 -8 -20 -18 -10 -23 -91 -8 -120 7 -12 24 -28 39 -35 21 -10 29 -25 39 -68 9 -42 9 -57 1 -62 -8 -5 -6 -8 6 -8 9 0 17 -4 17 -9 0 -5 3 -16 6 -25 5 -14 -1 -15 -42 -10 -88 10 -102 20 -109 73 -4 25 -12 82 -19 126 -21 127 -18 270 5 335 11 30 23 65 26 78 3 12 9 22 13 22 14 0 20 -44 7 -52 -8 -5 -9 -10 -2 -15 11 -9 12 -89 1 -137 -8 -35 10 -62 30 -45 8 6 11 15 9 20 -3 4 1 24 9 44 8 19 13 41 11 48 -2 6 -6 38 -8 71 -3 32 -10 62 -17 66 -9 6 -9 9 1 13 12 5 12 7 1 15 -22 15 7 55 33 46 11 -3 50 -8 88 -11 73 -6 74 -7 53 -66 -9 -23 -10 -40 -4 -43 5 -3 12 3 15 15 3 12 13 21 22 21 12 0 13 2 3 9 -18 11 -4 62 19 68 10 3 17 9 14 13 -3 5 0 12 6 16 6 3 15 0 20 -7 5 -8 3 -16 -4 -21 -6 -4 -12 -29 -13 -55 -1 -26 -9 -65 -18 -87 -9 -21 -16 -49 -16 -63 0 -13 -14 -67 -31 -119 -26 -79 -30 -104 -24 -147 8 -54 16 -76 37 -99 7 -7 19 -25 27 -40 8 -16 20 -28 28 -28 7 0 13 -4 13 -10 0 -5 7 -10 16 -10 14 0 14 -2 3 -16 -11 -14 -10 -18 6 -30 19 -14 18 -14 -5 -10 -14 2 -29 5 -33 5 -4 1 -23 17 -41 37 -27 29 -34 33 -39 20 -4 -9 -2 -16 3 -16 5 0 19 -20 31 -44 12 -24 30 -47 40 -49 25 -7 24 -24 -1 -32 -22 -7 -27 -25 -7 -25 21 0 37 15 42 38 6 33 14 42 36 42 13 0 19 7 19 24 0 26 -58 128 -90 158 -11 10 -20 32 -20 47 0 16 -6 34 -14 41 -9 6 -13 23 -11 38 8 51 34 133 49 158 9 13 13 24 10 24 -4 0 0 8 8 18 10 11 18 49 22 115 6 88 5 97 -11 98 -15 0 -16 1 -2 7 31 14 92 71 94 89 0 10 8 29 17 43 9 14 18 34 20 45 2 11 6 22 10 25 15 12 9 117 -13 218 -7 31 -13 62 -14 67 -6 46 -19 65 -45 65 -15 0 -33 7 -40 15 -7 8 -29 19 -49 25 -20 5 -67 30 -105 55 -70 46 -76 49 -76 40z m-80 -655 c0 -5 -5 -10 -11 -10 -5 0 -7 5 -4 10 3 6 8 10 11 10 2 0 4 -4 4 -10z"/>
<path d="M833 1584 c-3 -8 -1 -20 6 -27 8 -8 11 -4 11 16 0 30 -7 35 -17 11z"/>
<path d="M880 1484 c0 -62 4 -94 9 -85 9 13 4 171 -5 180 -2 2 -4 -40 -4 -95z"/>
<path d="M785 1513 c6 -73 28 -190 32 -171 3 9 -1 43 -6 74 -6 32 -11 77 -11 101 0 24 -4 43 -9 43 -6 0 -8 -21 -6 -47z"/>
<path d="M996 1548 c-11 -34 -14 -88 -5 -88 5 0 9 10 10 23 0 12 3 34 5 50 5 27 -3 38 -10 15z"/>
<path d="M938 1525 c-6 -30 -3 -43 8 -33 3 4 4 19 2 35 l-3 28 -7 -30z"/>
<path d="M1396 1505 c6 -42 11 -52 19 -43 3 2 -2 22 -10 44 l-15 39 6 -40z"/>
<path d="M684 1460 c7 -96 18 -104 15 -12 -1 40 -6 75 -11 78 -6 4 -7 -23 -4 -66z"/>
<path d="M830 1505 c0 -14 5 -25 10 -25 6 0 10 11 10 25 0 14 -4 25 -10 25 -5 0 -10 -11 -10 -25z"/>
<path d="M1046 1515 c-3 -8 -1 -15 4 -15 6 0 10 7 10 15 0 8 -2 15 -4 15 -2 0 -6 -7 -10 -15z"/>
<path d="M1261 1514 c0 -11 3 -14 6 -6 3 7 2 16 -1 19 -3 4 -6 -2 -5 -13z"/>
<path d="M1845 1520 c3 -5 13 -10 21 -10 8 0 14 5 14 10 0 6 -9 10 -21 10 -11 0 -17 -4 -14 -10z"/>
<path d="M730 1486 c0 -22 3 -27 11 -19 8 8 8 16 0 30 -9 16 -10 14 -11 -11z"/>
<path d="M936 1465 c4 -8 8 -15 10 -15 2 0 4 7 4 15 0 8 -4 15 -10 15 -5 0 -7 -7 -4 -15z"/>
<path d="M1041 1456 c-6 -16 -10 -34 -8 -40 6 -17 29 33 24 52 -3 13 -7 10 -16 -12z"/>
<path d="M1085 1463 c-16 -39 -30 -112 -24 -128 2 -5 0 -11 -6 -13 -5 -1 -11 13 -13 33 -4 40 -17 46 -26 13 -9 -36 -7 -128 3 -128 15 0 19 23 7 42 -13 21 -3 33 20 24 13 -5 16 -15 11 -51 -2 -25 -1 -48 4 -51 11 -6 10 -9 15 85 1 41 7 86 13 100 15 40 21 91 12 91 -5 0 -12 -8 -16 -17z"/>
<path d="M635 1449 c-4 -12 -2 -26 4 -32 8 -8 11 -2 11 21 0 37 -6 41 -15 11z"/>
<path d="M741 1434 c0 -11 3 -14 6 -6 3 7 2 16 -1 19 -3 4 -6 -2 -5 -13z"/>
<path d="M970 1434 c0 -15 26 -19 34 -5 3 5 -3 11 -14 14 -13 3 -20 0 -20 -9z"/>
<path d="M1145 1440 c-3 -5 -1 -10 4 -10 6 0 11 5 11 10 0 6 -2 10 -4 10 -3 0 -8 -4 -11 -10z"/>
<path d="M478 1399 c-10 -17 -12 -28 -5 -26 7 1 14 -22 18 -60 4 -34 12 -78 18 -99 8 -29 8 -40 -2 -46 -22 -14 -25 -8 -42 87 -10 52 -21 92 -26 90 -4 -3 -6 -11 -5 -18 5 -16 26 -125 29 -155 2 -13 10 -27 17 -32 10 -6 6 -11 -16 -16 -16 -4 -36 -12 -44 -19 -22 -18 -60 -29 -100 -28 -42 2 -97 -42 -80 -62 8 -9 5 -14 -10 -18 -12 -3 -20 -13 -20 -26 0 -12 -4 -21 -10 -21 -18 0 -10 -28 9 -33 23 -6 35 2 40 28 8 51 41 75 41 31 0 -13 3 -38 6 -55 6 -30 8 -31 25 -15 14 12 15 20 7 33 -8 13 -6 27 7 54 9 20 21 37 26 37 5 0 9 7 9 15 0 9 14 16 38 20 51 8 63 16 81 53 9 17 22 32 29 32 6 0 12 5 12 10 0 6 6 10 14 10 7 0 19 6 26 14 6 8 17 13 25 10 7 -3 32 4 54 15 l42 19 26 -24 c14 -13 30 -24 34 -24 9 0 33 -24 89 -86 32 -35 35 -44 32 -89 -4 -59 -29 -145 -43 -145 -6 0 -8 -8 -4 -19 16 -52 8 -89 -31 -139 -21 -28 -47 -53 -58 -56 -10 -2 -15 -9 -12 -14 7 -11 -54 -54 -104 -72 -72 -27 -67 -41 22 -51 33 -4 64 -13 69 -20 4 -7 21 -20 37 -28 16 -9 47 -28 69 -43 22 -14 60 -32 84 -38 24 -7 55 -17 69 -23 25 -11 112 -84 118 -99 8 -18 -34 -6 -57 16 -27 25 -129 81 -136 74 -2 -2 12 -13 33 -23 52 -28 80 -55 87 -87 11 -43 -10 -35 -67 27 -28 30 -56 55 -62 55 -7 0 -7 -3 -1 -8 18 -13 76 -102 67 -102 -47 0 -102 54 -102 100 0 21 -66 77 -136 115 -87 48 -119 68 -141 88 -16 14 -29 17 -54 12 l-32 -7 64 -28 c35 -15 80 -44 100 -64 19 -20 43 -36 53 -36 9 0 15 -4 12 -8 -3 -5 17 -18 44 -30 28 -12 50 -26 50 -31 0 -5 -13 -14 -28 -20 -28 -12 -44 -8 -126 35 -37 19 -44 12 -16 -18 45 -48 46 -64 2 -59 -7 1 -15 -5 -19 -14 -3 -9 -9 -13 -12 -8 -3 4 -30 24 -58 43 -29 19 -53 39 -53 43 0 5 -4 6 -9 2 -5 -3 -12 -1 -15 4 -4 5 3 13 15 16 17 6 31 -3 68 -40 33 -34 47 -43 49 -32 6 28 -86 137 -115 137 -8 0 -34 -11 -58 -24 -37 -21 -45 -23 -55 -11 -7 8 -9 19 -5 25 3 5 2 10 -3 10 -6 0 -13 17 -16 38 -11 62 -17 72 -36 72 -10 0 -22 4 -25 10 -10 16 -25 12 -19 -5 4 -8 12 -15 19 -15 8 0 14 -16 17 -40 2 -22 0 -40 -4 -40 -5 0 -8 -9 -8 -20 0 -11 6 -20 13 -20 6 0 27 -14 45 -31 25 -23 39 -29 57 -25 13 3 25 2 27 -2 2 -5 26 -26 53 -47 28 -20 52 -41 55 -45 3 -4 18 -14 34 -22 24 -13 34 -13 55 -3 14 7 56 22 93 33 l67 20 37 -41 c34 -38 40 -41 98 -45 43 -3 73 2 101 14 22 10 51 18 65 19 16 0 29 10 37 25 11 22 10 26 -12 40 -14 8 -25 20 -25 27 0 6 -5 15 -12 19 -8 5 -9 1 -4 -12 4 -11 -7 -3 -26 17 -26 28 -52 42 -117 63 -46 14 -89 26 -95 26 -6 0 -17 9 -24 20 -7 12 -16 18 -21 15 -5 -2 -14 2 -21 10 -11 13 -10 18 6 31 18 14 16 15 -21 9 -51 -7 -88 18 -79 52 4 13 11 23 16 23 5 0 6 -5 3 -10 -11 -18 17 -42 41 -36 13 4 26 2 29 -4 3 -5 11 -10 18 -10 18 0 -26 29 -45 30 -10 0 -18 5 -18 10 0 6 8 14 18 17 24 10 42 29 34 38 -4 4 4 17 19 28 37 32 62 76 57 102 -3 12 3 33 12 46 17 21 20 22 64 9 25 -7 46 -17 46 -21 0 -5 5 -9 10 -9 21 0 72 -45 86 -77 16 -32 39 -49 49 -33 6 10 -92 130 -106 130 -6 0 -35 12 -65 26 -30 14 -61 24 -68 21 -7 -3 -19 -2 -26 3 -9 6 -8 12 8 28 11 11 23 18 25 15 3 -2 4 9 3 26 -1 19 3 31 10 31 7 0 14 6 17 13 2 6 8 9 12 5 4 -4 2 -14 -4 -22 -17 -21 -3 -39 25 -33 13 2 24 0 24 -4 0 -5 7 -6 15 -3 17 7 21 84 4 84 -5 0 -7 5 -4 10 3 6 1 10 -4 10 -6 0 -11 -16 -11 -35 0 -19 -4 -35 -10 -35 -5 0 -10 7 -10 15 0 8 -5 25 -12 39 -9 20 -16 24 -34 20 -22 -6 -24 -3 -21 35 1 22 5 41 10 41 4 0 7 7 7 15 0 8 -4 15 -10 15 -5 0 -10 -4 -10 -8 0 -5 -7 -9 -15 -9 -9 0 -14 5 -12 10 3 11 -39 57 -53 57 -5 0 -12 17 -15 38 -4 20 -10 46 -15 57 -8 16 -8 15 -4 -6 5 -23 2 -27 -25 -31 -26 -4 -30 -2 -26 12 5 14 -1 17 -32 16 -21 0 -44 -7 -52 -14 -7 -7 -20 -11 -27 -8 -8 3 -14 1 -14 -4 0 -6 -11 -10 -24 -10 -14 0 -28 -4 -31 -10 -9 -14 -22 -12 -22 3 0 6 -4 28 -8 47 -4 19 -7 65 -7 103 0 37 -3 69 -7 71 -3 3 -14 -9 -23 -25z m-167 -349 c30 -16 22 -30 -16 -30 -33 0 -35 2 -25 20 12 23 15 24 41 10z m599 -90 c0 -5 -5 -10 -11 -10 -5 0 -7 5 -4 10 3 6 8 10 11 10 2 0 4 -4 4 -10z m-163 -366 c-3 -3 -12 -4 -19 -1 -8 3 -5 6 6 6 11 1 17 -2 13 -5z"/>
<path d="M842 1405 c0 -16 2 -22 5 -12 2 9 2 23 0 30 -3 6 -5 -1 -5 -18z"/>
<path d="M582 1409 c2 -7 10 -15 17 -17 8 -3 12 1 9 9 -2 7 -10 15 -17 17 -8 3 -12 -1 -9 -9z"/>
<path d="M1127 1403 c-5 -7 -6 -17 -2 -22 3 -5 1 -12 -3 -15 -5 -3 -9 -24 -10 -46 -1 -23 -4 -46 -7 -51 -9 -14 16 -129 28 -129 7 0 7 -4 -1 -12 -7 -7 -12 -22 -12 -35 0 -29 -15 -30 -25 0 l-8 22 -4 -22 c-3 -15 -12 -23 -24 -23 -12 0 -17 -5 -14 -10 4 -6 15 -8 25 -5 26 8 34 -23 13 -49 -10 -12 -19 -23 -20 -25 -2 -3 -10 4 -18 15 -8 10 -15 14 -15 8 0 -23 32 -38 75 -35 24 1 46 -3 50 -9 11 -17 -1 -23 -23 -11 -14 8 -24 7 -38 -4 -11 -8 -27 -15 -36 -15 -23 0 -61 -41 -49 -53 13 -13 121 22 121 39 0 8 6 14 13 14 14 0 14 -2 22 -160 6 -129 9 -140 28 -140 14 0 18 14 16 48 -1 9 -2 47 -2 85 -1 51 -5 67 -16 67 -10 0 -9 5 5 18 21 19 24 84 5 90 -6 2 -9 8 -5 13 3 5 1 9 -5 9 -5 0 -13 9 -16 20 -3 11 -14 20 -23 20 -11 0 -13 3 -6 8 16 10 12 51 -6 63 -13 9 -13 10 1 6 23 -7 30 32 14 71 -21 49 -29 150 -14 169 10 12 10 15 2 9 -7 -4 -13 -3 -13 3 0 5 3 11 8 13 4 2 5 19 2 38 -3 23 -8 31 -13 23z m-2 -402 c-3 -6 -11 -11 -16 -11 -5 0 -4 6 3 14 14 16 24 13 13 -3z m-25 -81 c0 -5 -7 -10 -16 -10 -8 0 -12 5 -9 10 3 6 10 10 16 10 5 0 9 -4 9 -10z"/>
<path d="M644 1368 c2 -18 4 -50 5 -71 1 -23 5 -36 11 -32 6 4 8 10 6 14 -3 4 -6 31 -7 60 -2 28 -6 54 -11 57 -4 3 -6 -10 -4 -28z"/>
<path d="M906 1384 c-11 -8 -15 -14 -8 -14 7 0 9 -10 6 -29 -3 -16 -2 -31 4 -35 7 -4 26 83 19 91 -1 1 -11 -5 -21 -13z"/>
<path d="M968 1377 c-3 -13 -1 -32 3 -43 5 -13 8 -7 8 24 1 46 -4 55 -11 19z"/>
<path d="M590 1347 c0 -20 4 -37 10 -37 5 0 7 14 3 33 -8 45 -13 47 -13 4z"/>
<path d="M750 1355 c0 -8 4 -15 10 -15 5 0 7 7 4 15 -4 8 -8 15 -10 15 -2 0 -4 -7 -4 -15z"/>
<path d="M862 1344 c-7 -8 -8 -14 -3 -14 5 0 7 -15 4 -34 -3 -19 -1 -42 5 -52 9 -16 11 -14 19 16 6 19 7 36 3 38 -4 1 -5 13 -3 26 6 29 -7 39 -25 20z"/>
<path d="M760 1306 c0 -8 5 -18 10 -21 6 -3 10 1 10 9 0 8 -4 18 -10 21 -5 3 -10 -1 -10 -9z"/>
<path d="M540 1287 c0 -15 20 -46 20 -32 0 6 5 3 10 -5 9 -13 10 -13 10 0 0 9 -9 23 -20 33 -13 11 -20 13 -20 4z"/>
<path d="M965 1289 c-4 -6 -5 -12 -2 -15 2 -3 7 2 10 11 7 17 1 20 -8 4z"/>
<path d="M600 1271 c0 -12 5 -21 10 -21 6 0 10 6 10 14 0 8 -4 18 -10 21 -5 3 -10 -3 -10 -14z"/>
<path d="M920 1213 c0 -27 4 -53 10 -59 5 -5 14 -34 20 -64 11 -59 14 -65 29 -56 6 4 2 26 -9 59 -10 29 -22 77 -26 105 -9 68 -24 77 -24 15z"/>
<path d="M411 1234 c0 -11 3 -14 6 -6 3 7 2 16 -1 19 -3 4 -6 -2 -5 -13z"/>
<path d="M971 1234 c0 -11 3 -14 6 -6 3 7 2 16 -1 19 -3 4 -6 -2 -5 -13z"/>
<path d="M875 1178 c1 -24 6 -43 14 -46 9 -3 11 7 8 39 -5 56 -23 62 -22 7z"/>
<path d="M1021 1200 c0 -14 4 -34 9 -45 l9 -20 1 20 c3 29 0 49 -11 60 -5 5 -9 0 -8 -15z"/>
<path d="M977 1191 c3 -12 9 -21 13 -21 12 0 5 33 -8 38 -6 2 -8 -5 -5 -17z"/>
<path d="M1068 1185 c-8 -8 3 -65 13 -65 5 0 6 15 2 33 -7 37 -8 39 -15 32z"/>
<path d="M410 1171 c0 -6 5 -13 10 -16 6 -3 10 1 10 9 0 9 -4 16 -10 16 -5 0 -10 -4 -10 -9z"/>
<path d="M370 1151 c0 -6 4 -13 10 -16 6 -3 7 1 4 9 -7 18 -14 21 -14 7z"/>
<path d="M712 1130 c5 -17 15 -33 21 -37 7 -4 8 0 3 13 -5 10 -11 27 -13 37 -3 9 -9 17 -14 17 -4 0 -3 -14 3 -30z"/>
<path d="M1036 1105 c4 -8 8 -15 10 -15 2 0 4 7 4 15 0 8 -4 15 -10 15 -5 0 -7 -7 -4 -15z"/>
<path d="M617 1104 c-7 -8 13 -64 23 -64 5 0 4 15 -2 33 -13 39 -13 39 -21 31z"/>
<path d="M570 1064 c0 -8 5 -12 10 -9 6 4 8 11 5 16 -9 14 -15 11 -15 -7z"/>
<path d="M740 1071 c0 -5 5 -13 10 -16 6 -3 10 -2 10 4 0 5 -4 13 -10 16 -5 3 -10 2 -10 -4z"/>
<path d="M1010 1040 c0 -11 5 -20 10 -20 6 0 10 9 10 20 0 11 -4 20 -10 20 -5 0 -10 -9 -10 -20z"/>
<path d="M520 1030 c0 -8 5 -22 10 -30 9 -13 10 -13 10 0 0 8 -5 22 -10 30 -9 13 -10 13 -10 0z"/>
<path d="M470 1003 c0 -5 5 -15 10 -23 8 -12 10 -11 10 8 0 12 -4 22 -10 22 -5 0 -10 -3 -10 -7z"/>
<path d="M710 1000 c0 -5 5 -10 11 -10 5 0 7 5 4 10 -3 6 -8 10 -11 10 -2 0 -4 -4 -4 -10z"/>
<path d="M590 988 c0 -9 5 -20 10 -23 13 -8 13 5 0 25 -8 13 -10 13 -10 -2z"/>
<path d="M545 950 c10 -49 38 -100 43 -78 2 9 -9 38 -23 65 -26 46 -26 47 -20 13z"/>
<path d="M491 944 c-1 -17 29 -87 35 -81 3 3 -3 25 -14 49 -11 23 -21 38 -21 32z"/>
<path d="M610 945 c0 -5 5 -17 10 -25 5 -8 10 -10 10 -5 0 6 -5 17 -10 25 -5 8 -10 11 -10 5z"/>
<path d="M376 931 c-4 -6 0 -23 8 -38 l15 -28 0 25 c1 31 -14 57 -23 41z"/>
<path d="M1238 888 c-2 -18 0 -42 4 -53 3 -11 9 -33 13 -49 4 -19 10 -25 16 -19 6 6 6 19 -1 38 -6 15 -10 35 -9 44 3 37 -2 71 -10 71 -6 0 -11 -15 -13 -32z"/>
<path d="M197 903 c-2 -5 -5 -26 -6 -48 -1 -22 -7 -43 -14 -47 -9 -5 -8 -8 3 -8 22 0 47 -69 30 -80 -9 -6 -7 -10 8 -14 12 -4 19 -13 16 -20 -3 -8 4 -20 15 -28 11 -8 22 -25 24 -38 2 -13 9 -26 15 -28 7 -2 12 -8 12 -13 0 -14 38 -49 53 -49 7 0 19 -9 27 -21 40 -56 39 -56 41 -31 1 12 3 27 4 32 1 6 3 19 4 31 0 11 5 18 10 14 6 -3 6 6 1 25 -5 18 -5 30 1 30 16 0 10 23 -36 130 -24 58 -45 115 -45 128 0 16 -6 22 -21 22 -15 0 -19 -4 -15 -16 4 -12 2 -15 -9 -11 -23 9 -26 -7 -16 -72 8 -49 19 -73 60 -127 28 -37 48 -70 46 -74 -22 -36 -144 79 -136 129 1 7 -2 10 -8 6 -6 -3 -11 2 -11 13 0 11 -7 25 -16 33 -10 8 -15 26 -13 53 3 62 0 86 -10 86 -6 0 -12 -3 -14 -7z m156 -109 c9 -25 14 -51 10 -57 -3 -5 -1 -7 4 -4 6 4 17 -3 25 -16 19 -28 28 -76 17 -83 -5 -3 -9 0 -9 7 0 7 -8 22 -19 33 -10 12 -28 51 -40 88 -24 76 -24 78 -13 78 4 0 15 -21 25 -46z m-93 -124 c0 -5 -2 -10 -4 -10 -3 0 -8 5 -11 10 -3 6 -1 10 4 10 6 0 11 -4 11 -10z"/>
<path d="M400 842 c0 -4 6 -17 14 -28 8 -11 23 -41 32 -65 16 -39 54 -101 54 -86 0 3 -13 34 -30 69 -16 35 -34 76 -39 91 -10 25 -31 38 -31 19z"/>
<path d="M600 837 c0 -14 20 -37 32 -37 4 0 2 11 -4 25 -12 27 -28 34 -28 12z"/>
<path d="M530 828 c0 -16 39 -67 40 -52 0 16 -24 64 -32 64 -5 0 -8 -6 -8 -12z"/>
<path d="M1667 813 c-4 -3 -7 -11 -7 -17 0 -6 5 -5 12 2 6 6 9 14 7 17 -3 3 -9 2 -12 -2z"/>
<path d="M580 765 c0 -18 19 -40 26 -32 4 4 0 15 -9 24 -9 10 -17 13 -17 8z"/>
<path d="M937 720 c61 -39 83 -48 83 -32 0 8 -122 72 -137 72 -4 0 20 -18 54 -40z"/>
<path d="M1270 738 c0 -17 40 -82 46 -75 6 5 -33 87 -41 87 -3 0 -5 -6 -5 -12z"/>
<path d="M525 730 c3 -5 8 -10 11 -10 2 0 4 5 4 10 0 6 -5 10 -11 10 -5 0 -7 -4 -4 -10z"/>
<path d="M840 670 c0 -5 7 -10 15 -10 8 0 15 5 15 10 0 6 -7 10 -15 10 -8 0 -15 -4 -15 -10z"/>
<path d="M880 671 c0 -6 6 -11 14 -11 7 0 27 -7 42 -15 16 -8 39 -15 51 -15 12 0 28 -7 37 -15 8 -8 22 -15 32 -15 31 0 -4 27 -64 49 -81 29 -112 35 -112 22z"/>
<path d="M1115 641 c-6 -11 9 -23 19 -14 9 9 7 23 -3 23 -6 0 -12 -4 -16 -9z"/>
<path d="M1303 595 c0 -22 2 -30 4 -17 2 12 2 30 0 40 -3 9 -5 -1 -4 -23z"/>
<path d="M1170 613 c0 -5 5 -15 10 -23 7 -12 12 -12 22 -2 9 9 9 12 -1 12 -7 0 -9 5 -6 10 3 6 -1 10 -9 10 -9 0 -16 -3 -16 -7z"/>
<path d="M799 572 c48 -33 156 -73 188 -69 25 2 34 -1 39 -15 7 -23 22 -24 20 -1 0 9 8 19 20 22 19 5 84 71 70 71 -3 0 -22 -11 -42 -25 -20 -14 -49 -25 -65 -25 -39 0 -157 26 -201 44 -48 20 -60 19 -29 -2z"/>
<path d="M1224 572 c-6 -4 -14 -14 -17 -22 -4 -12 -6 -11 -6 3 -1 9 -7 17 -15 17 -10 0 -12 -11 -8 -47 2 -27 8 -54 12 -62 11 -21 36 -21 37 0 1 12 -3 16 -13 12 -8 -3 -14 0 -14 6 0 6 6 11 13 11 8 0 13 13 12 33 0 17 7 37 15 44 16 13 2 18 -16 5z"/>
<path d="M815 510 c4 -6 11 -8 16 -5 14 9 11 15 -7 15 -8 0 -12 -5 -9 -10z"/>
<path d="M910 475 c0 -6 69 -35 84 -35 6 0 -4 9 -22 20 -30 19 -62 26 -62 15z"/>
<path d="M1074 451 c3 -4 19 -11 35 -14 31 -7 62 -41 106 -120 29 -54 27 -74 -4 -36 -11 13 -21 22 -21 19 -7 -31 -7 -39 1 -34 5 3 9 -4 9 -16 0 -11 8 -23 18 -26 49 -16 114 -62 106 -76 -3 -5 33 -8 80 -7 85 1 118 11 73 23 -12 3 -34 2 -47 -1 -22 -6 -23 -4 -13 9 11 12 9 23 -10 56 -12 23 -24 42 -27 42 -3 0 -6 -18 -6 -40 -2 -50 -5 -53 -38 -41 -31 12 -33 25 -6 48 26 22 25 27 -4 41 -21 9 -24 16 -19 50 5 34 2 40 -17 45 -12 3 -20 10 -17 14 3 5 -3 14 -13 21 -15 9 -19 8 -25 -6 -6 -16 -7 -16 -16 1 -6 9 -18 17 -27 17 -10 0 -35 9 -57 20 -41 21 -70 26 -61 11z m226 -115 c0 -2 -11 -6 -25 -8 -13 -3 -22 -1 -19 3 5 9 44 13 44 5z m-10 -117 c0 -18 -2 -19 -15 -9 -15 12 -12 30 6 30 5 0 9 -10 9 -21z"/>
<path d="M1079 389 c26 -22 35 -20 25 5 -3 9 -16 16 -28 16 -21 -1 -21 -1 3 -21z"/>
<path d="M1120 373 c0 -13 57 -73 63 -67 9 9 -16 44 -30 44 -7 0 -12 5 -10 11 1 6 -4 14 -10 16 -7 3 -13 1 -13 -4z"/>
<path d="M1440 340 c0 -5 7 -10 15 -10 8 0 15 5 15 10 0 6 -7 10 -15 10 -8 0 -15 -4 -15 -10z"/>
<path d="M1492 328 c6 -18 28 -21 28 -4 0 9 -7 16 -16 16 -9 0 -14 -5 -12 -12z"/>
<path d="M1636 222 c-3 -5 6 -16 19 -26 14 -10 22 -23 19 -28 -7 -12 16 -29 28 -22 14 9 9 23 -22 54 -31 32 -36 34 -44 22z"/>
</g>
</svg>